# xmcd
#
# Track frame offsets: 
#        182
#        18092
#        40145
#        58232
#        77577
#        91407
#        110822
#        131957
#        148635
#        165317
#        183472
#        204760
#
# Disc length: 2987 seconds
#
# Revision: 3
# Processed by: cddbd v1.5.2PL0 Copyright (c) Steve Scherf et al.
# Submitted via: ExactAudioCopy v0.95b3
#
DISCID=9e0ba90c
DTITLE=Dschinghis Khan - Die Grossen Erfolge [CD1] [74321 59698 2]
DYEAR=1998
DGENRE=Pop
TTITLE0=Huh Hah Dschinghis Khan (Potpourri)
TTITLE1=Mexico
TTITLE2=Wir Sitzen Alle Im Selben Boot
TTITLE3=Himalaya
TTITLE4=Dschinghis Khan
TTITLE5=Komm Doch Heim
TTITLE6=Samurai
TTITLE7=Tut Ench Amun
TTITLE8=Ivanhoe
TTITLE9=Mata Hari
TTITLE10=Goodbye Hawaii
TTITLE11=Los Gitanos
EXTD=
EXTT0=
EXTT1=
EXTT2=
EXTT3=
EXTT4=
EXTT5=
EXTT6=
EXTT7=
EXTT8=
EXTT9=
EXTT10=
EXTT11=
PLAYORDER=
